<svg xmlns="http://www.w3.org/2000/svg" xmlns:xlink="http://www.w3.org/1999/xlink" version="1.1" class="marks" width="786" height="748" viewBox="0 0 786 748"><g fill="none" stroke-miterlimit="10" transform="translate(42,27)"><g class="mark-group role-frame root" role="graphics-object" aria-roledescription="group mark container"><g transform="translate(0,0)"><path class="background" aria-hidden="true" d="M0,0h635v684h-635Z"/><g><g class="mark-group role-axis" role="graphics-symbol" aria-roledescription="axis" aria-label="X-axis titled 'Year' for a linear scale with values from 1,910 to 1,990"><g transform="translate(0.5,684.5)"><path class="background" aria-hidden="true" d="M0,0h0v0h0Z" pointer-events="none"/><g><g class="mark-rule role-axis-grid" pointer-events="none"><line transform="translate(79,0)" x2="0" y2="-684" stroke="#ddd" stroke-width="1" opacity="1"/><line transform="translate(238,0)" x2="0" y2="-684" stroke="#ddd" stroke-width="1" opacity="1"/><line transform="translate(397,0)" x2="0" y2="-684" stroke="#ddd" stroke-width="1" opacity="1"/><line transform="translate(556,0)" x2="0" y2="-684" stroke="#ddd" stroke-width="1" opacity="1"/></g><g class="mark-rule role-axis-tick" pointer-events="none"><line transform="translate(79,0)" x2="0" y2="5" stroke="#888" stroke-width="1" opacity="1"/><line transform="translate(238,0)" x2="0" y2="5" stroke="#888" stroke-width="1" opacity="1"/><line transform="translate(397,0)" x2="0" y2="5" stroke="#888" stroke-width="1" opacity="1"/><line transform="translate(556,0)" x2="0" y2="5" stroke="#888" stroke-width="1" opacity="1"/></g><g class="mark-text role-axis-label" pointer-events="none"><text text-anchor="middle" transform="translate(79,15)" font-family="sans-serif" font-size="10px" fill="#000" opacity="1">1,920</text><text text-anchor="middle" transform="translate(238,15)" font-family="sans-serif" font-size="10px" fill="#000" opacity="1">1,940</text><text text-anchor="middle" transform="translate(397,15)" font-family="sans-serif" font-size="10px" fill="#000" opacity="1">1,960</text><text text-anchor="middle" transform="translate(556,15)" font-family="sans-serif" font-size="10px" fill="#000" opacity="1">1,980</text></g><g class="mark-text role-axis-title" pointer-events="none"><text text-anchor="middle" transform="translate(317.5,30)" font-family="sans-serif" font-size="11px" font-weight="bold" fill="#000" opacity="1">Year</text></g></g><path class="foreground" aria-hidden="true" d="" pointer-events="none" display="none"/></g></g><g class="mark-group role-axis" role="graphics-symbol" aria-roledescription="axis" aria-label="Y-axis titled 'Percentage' for a linear scale with values from 0.0 to 1.2"><g transform="translate(0.5,0.5)"><path class="background" aria-hidden="true" d="M0,0h0v0h0Z" pointer-events="none"/><g><g class="mark-rule role-axis-grid" pointer-events="none"><line transform="translate(0,684)" x2="635" y2="0" stroke="#ddd" stroke-width="1" opacity="1"/><line transform="translate(0,627)" x2="635" y2="0" stroke="#ddd" stroke-width="1" opacity="1"/><line transform="translate(0,570)" x2="635" y2="0" stroke="#ddd" stroke-width="1" opacity="1"/><line transform="translate(0,513)" x2="635" y2="0" stroke="#ddd" stroke-width="1" opacity="1"/><line transform="translate(0,456)" x2="635" y2="0" stroke="#ddd" stroke-width="1" opacity="1"/><line transform="translate(0,399)" x2="635" y2="0" stroke="#ddd" stroke-width="1" opacity="1"/><line transform="translate(0,342)" x2="635" y2="0" stroke="#ddd" stroke-width="1" opacity="1"/><line transform="translate(0,285)" x2="635" y2="0" stroke="#ddd" stroke-width="1" opacity="1"/><line transform="translate(0,228)" x2="635" y2="0" stroke="#ddd" stroke-width="1" opacity="1"/><line transform="translate(0,171)" x2="635" y2="0" stroke="#ddd" stroke-width="1" opacity="1"/><line transform="translate(0,114)" x2="635" y2="0" stroke="#ddd" stroke-width="1" opacity="1"/><line transform="translate(0,57)" x2="635" y2="0" stroke="#ddd" stroke-width="1" opacity="1"/><line transform="translate(0,0)" x2="635" y2="0" stroke="#ddd" stroke-width="1" opacity="1"/></g><g class="mark-rule role-axis-tick" pointer-events="none"><line transform="translate(0,684)" x2="-5" y2="0" stroke="#888" stroke-width="1" opacity="1"/><line transform="translate(0,627)" x2="-5" y2="0" stroke="#888" stroke-width="1" opacity="1"/><line transform="translate(0,570)" x2="-5" y2="0" stroke="#888" stroke-width="1" opacity="1"/><line transform="translate(0,513)" x2="-5" y2="0" stroke="#888" stroke-width="1" opacity="1"/><line transform="translate(0,456)" x2="-5" y2="0" stroke="#888" stroke-width="1" opacity="1"/><line transform="translate(0,399)" x2="-5" y2="0" stroke="#888" stroke-width="1" opacity="1"/><line transform="translate(0,342)" x2="-5" y2="0" stroke="#888" stroke-width="1" opacity="1"/><line transform="translate(0,285)" x2="-5" y2="0" stroke="#888" stroke-width="1" opacity="1"/><line transform="translate(0,228)" x2="-5" y2="0" stroke="#888" stroke-width="1" opacity="1"/><line transform="translate(0,171)" x2="-5" y2="0" stroke="#888" stroke-width="1" opacity="1"/><line transform="translate(0,114)" x2="-5" y2="0" stroke="#888" stroke-width="1" opacity="1"/><line transform="translate(0,57)" x2="-5" y2="0" stroke="#888" stroke-width="1" opacity="1"/><line transform="translate(0,0)" x2="-5" y2="0" stroke="#888" stroke-width="1" opacity="1"/></g><g class="mark-text role-axis-label" pointer-events="none"><text text-anchor="end" transform="translate(-7,687)" font-family="sans-serif" font-size="10px" fill="#000" opacity="1">0.0</text><text text-anchor="end" transform="translate(-7,630)" font-family="sans-serif" font-size="10px" fill="#000" opacity="1">0.1</text><text text-anchor="end" transform="translate(-7,573)" font-family="sans-serif" font-size="10px" fill="#000" opacity="1">0.2</text><text text-anchor="end" transform="translate(-7,516)" font-family="sans-serif" font-size="10px" fill="#000" opacity="1">0.3</text><text text-anchor="end" transform="translate(-7,459)" font-family="sans-serif" font-size="10px" fill="#000" opacity="1">0.4</text><text text-anchor="end" transform="translate(-7,402)" font-family="sans-serif" font-size="10px" fill="#000" opacity="1">0.5</text><text text-anchor="end" transform="translate(-7,345)" font-family="sans-serif" font-size="10px" fill="#000" opacity="1">0.6</text><text text-anchor="end" transform="translate(-7,288)" font-family="sans-serif" font-size="10px" fill="#000" opacity="1">0.7</text><text text-anchor="end" transform="translate(-7,231)" font-family="sans-serif" font-size="10px" fill="#000" opacity="1">0.8</text><text text-anchor="end" transform="translate(-7,174)" font-family="sans-serif" font-size="10px" fill="#000" opacity="1">0.9</text><text text-anchor="end" transform="translate(-7,117)" font-family="sans-serif" font-size="10px" fill="#000" opacity="1">1.0</text><text text-anchor="end" transform="translate(-7,60)" font-family="sans-serif" font-size="10px" fill="#000" opacity="1">1.1</text><text text-anchor="end" transform="translate(-7,3)" font-family="sans-serif" font-size="10px" fill="#000" opacity="1">1.2</text></g><g class="mark-text role-axis-title" pointer-events="none"><text text-anchor="middle" transform="translate(-25.9013671875,342) rotate(-90) translate(0,-2)" font-family="sans-serif" font-size="11px" font-weight="bold" fill="#000" opacity="1">Percentage</text></g></g><path class="foreground" aria-hidden="true" d="" pointer-events="none" display="none"/></g></g><g class="mark-symbol role-mark marks" role="graphics-symbol" aria-roledescription="symbol mark container"><path transform="translate(365,673)" d="M1.7320508075688772,0A1.7320508075688772,1.7320508075688772,0,1,1,-1.7320508075688772,0A1.7320508075688772,1.7320508075688772,0,1,1,1.7320508075688772,0" stroke="#4c78a8" stroke-width="2" opacity="1"/><path transform="translate(8,547)" d="M1.7320508075688772,0A1.7320508075688772,1.7320508075688772,0,1,1,-1.7320508075688772,0A1.7320508075688772,1.7320508075688772,0,1,1,1.7320508075688772,0" stroke="#4c78a8" stroke-width="2" opacity="1"/><path transform="translate(40,591)" d="M1.7320508075688772,0A1.7320508075688772,1.7320508075688772,0,1,1,-1.7320508075688772,0A1.7320508075688772,1.7320508075688772,0,1,1,1.7320508075688772,0" stroke="#4c78a8" stroke-width="2" opacity="1"/><path transform="translate(135,643)" d="M1.7320508075688772,0A1.7320508075688772,1.7320508075688772,0,1,1,-1.7320508075688772,0A1.7320508075688772,1.7320508075688772,0,1,1,1.7320508075688772,0" stroke="#4c78a8" stroke-width="2" opacity="1"/><path transform="translate(183,650)" d="M1.7320508075688772,0A1.7320508075688772,1.7320508075688772,0,1,1,-1.7320508075688772,0A1.7320508075688772,1.7320508075688772,0,1,1,1.7320508075688772,0" stroke="#4c78a8" stroke-width="2" opacity="1"/><path transform="translate(333,668)" d="M1.7320508075688772,0A1.7320508075688772,1.7320508075688772,0,1,1,-1.7320508075688772,0A1.7320508075688772,1.7320508075688772,0,1,1,1.7320508075688772,0" stroke="#4c78a8" stroke-width="2" opacity="1"/><path transform="translate(127,624)" d="M1.7320508075688772,0A1.7320508075688772,1.7320508075688772,0,1,1,-1.7320508075688772,0A1.7320508075688772,1.7320508075688772,0,1,1,1.7320508075688772,0" stroke="#4c78a8" stroke-width="2" opacity="1"/><path transform="translate(302,674)" d="M1.7320508075688772,0A1.7320508075688772,1.7320508075688772,0,1,1,-1.7320508075688772,0A1.7320508075688772,1.7320508075688772,0,1,1,1.7320508075688772,0" stroke="#4c78a8" stroke-width="2" opacity="1"/><path transform="translate(246,654)" d="M1.7320508075688772,0A1.7320508075688772,1.7320508075688772,0,1,1,-1.7320508075688772,0A1.7320508075688772,1.7320508075688772,0,1,1,1.7320508075688772,0" stroke="#4c78a8" stroke-width="2" opacity="1"/><path transform="translate(191,655)" d="M1.7320508075688772,0A1.7320508075688772,1.7320508075688772,0,1,1,-1.7320508075688772,0A1.7320508075688772,1.7320508075688772,0,1,1,1.7320508075688772,0" stroke="#4c78a8" stroke-width="2" opacity="1"/><path transform="translate(373,667)" d="M1.7320508075688772,0A1.7320508075688772,1.7320508075688772,0,1,1,-1.7320508075688772,0A1.7320508075688772,1.7320508075688772,0,1,1,1.7320508075688772,0" stroke="#4c78a8" stroke-width="2" opacity="1"/><path transform="translate(111,619)" d="M1.7320508075688772,0A1.7320508075688772,1.7320508075688772,0,1,1,-1.7320508075688772,0A1.7320508075688772,1.7320508075688772,0,1,1,1.7320508075688772,0" stroke="#4c78a8" stroke-width="2" opacity="1"/><path transform="translate(230,656)" d="M1.7320508075688772,0A1.7320508075688772,1.7320508075688772,0,1,1,-1.7320508075688772,0A1.7320508075688772,1.7320508075688772,0,1,1,1.7320508075688772,0" stroke="#4c78a8" stroke-width="2" opacity="1"/><path transform="translate(71,588)" d="M1.7320508075688772,0A1.7320508075688772,1.7320508075688772,0,1,1,-1.7320508075688772,0A1.7320508075688772,1.7320508075688772,0,1,1,1.7320508075688772,0" stroke="#4c78a8" stroke-width="2" opacity="1"/><path transform="translate(349,666)" d="M1.7320508075688772,0A1.7320508075688772,1.7320508075688772,0,1,1,-1.7320508075688772,0A1.7320508075688772,1.7320508075688772,0,1,1,1.7320508075688772,0" stroke="#4c78a8" stroke-width="2" opacity="1"/><path transform="translate(32,593)" d="M1.7320508075688772,0A1.7320508075688772,1.7320508075688772,0,1,1,-1.7320508075688772,0A1.7320508075688772,1.7320508075688772,0,1,1,1.7320508075688772,0" stroke="#4c78a8" stroke-width="2" opacity="1"/><path transform="translate(198,656)" d="M1.7320508075688772,0A1.7320508075688772,1.7320508075688772,0,1,1,-1.7320508075688772,0A1.7320508075688772,1.7320508075688772,0,1,1,1.7320508075688772,0" stroke="#4c78a8" stroke-width="2" opacity="1"/><path transform="translate(87,618)" d="M1.7320508075688772,0A1.7320508075688772,1.7320508075688772,0,1,1,-1.7320508075688772,0A1.7320508075688772,1.7320508075688772,0,1,1,1.7320508075688772,0" stroke="#4c78a8" stroke-width="2" opacity="1"/><path transform="translate(95,588)" d="M1.7320508075688772,0A1.7320508075688772,1.7320508075688772,0,1,1,-1.7320508075688772,0A1.7320508075688772,1.7320508075688772,0,1,1,1.7320508075688772,0" stroke="#4c78a8" stroke-width="2" opacity="1"/><path transform="translate(167,658)" d="M1.7320508075688772,0A1.7320508075688772,1.7320508075688772,0,1,1,-1.7320508075688772,0A1.7320508075688772,1.7320508075688772,0,1,1,1.7320508075688772,0" stroke="#4c78a8" stroke-width="2" opacity="1"/><path transform="translate(421,672)" d="M1.7320508075688772,0A1.7320508075688772,1.7320508075688772,0,1,1,-1.7320508075688772,0A1.7320508075688772,1.7320508075688772,0,1,1,1.7320508075688772,0" stroke="#4c78a8" stroke-width="2" opacity="1"/><path transform="translate(143,641)" d="M1.7320508075688772,0A1.7320508075688772,1.7320508075688772,0,1,1,-1.7320508075688772,0A1.7320508075688772,1.7320508075688772,0,1,1,1.7320508075688772,0" stroke="#4c78a8" stroke-width="2" opacity="1"/><path transform="translate(262,668)" d="M1.7320508075688772,0A1.7320508075688772,1.7320508075688772,0,1,1,-1.7320508075688772,0A1.7320508075688772,1.7320508075688772,0,1,1,1.7320508075688772,0" stroke="#4c78a8" stroke-width="2" opacity="1"/><path transform="translate(222,649)" d="M1.7320508075688772,0A1.7320508075688772,1.7320508075688772,0,1,1,-1.7320508075688772,0A1.7320508075688772,1.7320508075688772,0,1,1,1.7320508075688772,0" stroke="#4c78a8" stroke-width="2" opacity="1"/><path transform="translate(79,623)" d="M1.7320508075688772,0A1.7320508075688772,1.7320508075688772,0,1,1,-1.7320508075688772,0A1.7320508075688772,1.7320508075688772,0,1,1,1.7320508075688772,0" stroke="#4c78a8" stroke-width="2" opacity="1"/><path transform="translate(325,668)" d="M1.7320508075688772,0A1.7320508075688772,1.7320508075688772,0,1,1,-1.7320508075688772,0A1.7320508075688772,1.7320508075688772,0,1,1,1.7320508075688772,0" stroke="#4c78a8" stroke-width="2" opacity="1"/><path transform="translate(0,597)" d="M1.7320508075688772,0A1.7320508075688772,1.7320508075688772,0,1,1,-1.7320508075688772,0A1.7320508075688772,1.7320508075688772,0,1,1,1.7320508075688772,0" stroke="#4c78a8" stroke-width="2" opacity="1"/><path transform="translate(206,644)" d="M1.7320508075688772,0A1.7320508075688772,1.7320508075688772,0,1,1,-1.7320508075688772,0A1.7320508075688772,1.7320508075688772,0,1,1,1.7320508075688772,0" stroke="#4c78a8" stroke-width="2" opacity="1"/><path transform="translate(341,672)" d="M1.7320508075688772,0A1.7320508075688772,1.7320508075688772,0,1,1,-1.7320508075688772,0A1.7320508075688772,1.7320508075688772,0,1,1,1.7320508075688772,0" stroke="#4c78a8" stroke-width="2" opacity="1"/><path transform="translate(254,661)" d="M1.7320508075688772,0A1.7320508075688772,1.7320508075688772,0,1,1,-1.7320508075688772,0A1.7320508075688772,1.7320508075688772,0,1,1,1.7320508075688772,0" stroke="#4c78a8" stroke-width="2" opacity="1"/><path transform="translate(214,656)" d="M1.7320508075688772,0A1.7320508075688772,1.7320508075688772,0,1,1,-1.7320508075688772,0A1.7320508075688772,1.7320508075688772,0,1,1,1.7320508075688772,0" stroke="#4c78a8" stroke-width="2" opacity="1"/><path transform="translate(175,643)" d="M1.7320508075688772,0A1.7320508075688772,1.7320508075688772,0,1,1,-1.7320508075688772,0A1.7320508075688772,1.7320508075688772,0,1,1,1.7320508075688772,0" stroke="#4c78a8" stroke-width="2" opacity="1"/><path transform="translate(294,664)" d="M1.7320508075688772,0A1.7320508075688772,1.7320508075688772,0,1,1,-1.7320508075688772,0A1.7320508075688772,1.7320508075688772,0,1,1,1.7320508075688772,0" stroke="#4c78a8" stroke-width="2" opacity="1"/><path transform="translate(48,570)" d="M1.7320508075688772,0A1.7320508075688772,1.7320508075688772,0,1,1,-1.7320508075688772,0A1.7320508075688772,1.7320508075688772,0,1,1,1.7320508075688772,0" stroke="#4c78a8" stroke-width="2" opacity="1"/><path transform="translate(151,631)" d="M1.7320508075688772,0A1.7320508075688772,1.7320508075688772,0,1,1,-1.7320508075688772,0A1.7320508075688772,1.7320508075688772,0,1,1,1.7320508075688772,0" stroke="#4c78a8" stroke-width="2" opacity="1"/><path transform="translate(238,651)" d="M1.7320508075688772,0A1.7320508075688772,1.7320508075688772,0,1,1,-1.7320508075688772,0A1.7320508075688772,1.7320508075688772,0,1,1,1.7320508075688772,0" stroke="#4c78a8" stroke-width="2" opacity="1"/><path transform="translate(64,578)" d="M1.7320508075688772,0A1.7320508075688772,1.7320508075688772,0,1,1,-1.7320508075688772,0A1.7320508075688772,1.7320508075688772,0,1,1,1.7320508075688772,0" stroke="#4c78a8" stroke-width="2" opacity="1"/><path transform="translate(310,668)" d="M1.7320508075688772,0A1.7320508075688772,1.7320508075688772,0,1,1,-1.7320508075688772,0A1.7320508075688772,1.7320508075688772,0,1,1,1.7320508075688772,0" stroke="#4c78a8" stroke-width="2" opacity="1"/><path transform="translate(24,570)" d="M1.7320508075688772,0A1.7320508075688772,1.7320508075688772,0,1,1,-1.7320508075688772,0A1.7320508075688772,1.7320508075688772,0,1,1,1.7320508075688772,0" stroke="#4c78a8" stroke-width="2" opacity="1"/><path transform="translate(159,632)" d="M1.7320508075688772,0A1.7320508075688772,1.7320508075688772,0,1,1,-1.7320508075688772,0A1.7320508075688772,1.7320508075688772,0,1,1,1.7320508075688772,0" stroke="#4c78a8" stroke-width="2" opacity="1"/><path transform="translate(103,615)" d="M1.7320508075688772,0A1.7320508075688772,1.7320508075688772,0,1,1,-1.7320508075688772,0A1.7320508075688772,1.7320508075688772,0,1,1,1.7320508075688772,0" stroke="#4c78a8" stroke-width="2" opacity="1"/><path transform="translate(119,632)" d="M1.7320508075688772,0A1.7320508075688772,1.7320508075688772,0,1,1,-1.7320508075688772,0A1.7320508075688772,1.7320508075688772,0,1,1,1.7320508075688772,0" stroke="#4c78a8" stroke-width="2" opacity="1"/><path transform="translate(270,672)" d="M1.7320508075688772,0A1.7320508075688772,1.7320508075688772,0,1,1,-1.7320508075688772,0A1.7320508075688772,1.7320508075688772,0,1,1,1.7320508075688772,0" stroke="#4c78a8" stroke-width="2" opacity="1"/><path transform="translate(278,667)" d="M1.7320508075688772,0A1.7320508075688772,1.7320508075688772,0,1,1,-1.7320508075688772,0A1.7320508075688772,1.7320508075688772,0,1,1,1.7320508075688772,0" stroke="#4c78a8" stroke-width="2" opacity="1"/><path transform="translate(56,616)" d="M1.7320508075688772,0A1.7320508075688772,1.7320508075688772,0,1,1,-1.7320508075688772,0A1.7320508075688772,1.7320508075688772,0,1,1,1.7320508075688772,0" stroke="#4c78a8" stroke-width="2" opacity="1"/><path transform="translate(16,581)" d="M1.7320508075688772,0A1.7320508075688772,1.7320508075688772,0,1,1,-1.7320508075688772,0A1.7320508075688772,1.7320508075688772,0,1,1,1.7320508075688772,0" stroke="#4c78a8" stroke-width="2" opacity="1"/><path transform="translate(40,172)" d="M1.7320508075688772,0A1.7320508075688772,1.7320508075688772,0,1,1,-1.7320508075688772,0A1.7320508075688772,1.7320508075688772,0,1,1,1.7320508075688772,0" stroke="#f58518" stroke-width="2" opacity="1"/><path transform="translate(333,451)" d="M1.7320508075688772,0A1.7320508075688772,1.7320508075688772,0,1,1,-1.7320508075688772,0A1.7320508075688772,1.7320508075688772,0,1,1,1.7320508075688772,0" stroke="#f58518" stroke-width="2" opacity="1"/><path transform="translate(127,218)" d="M1.7320508075688772,0A1.7320508075688772,1.7320508075688772,0,1,1,-1.7320508075688772,0A1.7320508075688772,1.7320508075688772,0,1,1,1.7320508075688772,0" stroke="#f58518" stroke-width="2" opacity="1"/><path transform="translate(611,663)" d="M1.7320508075688772,0A1.7320508075688772,1.7320508075688772,0,1,1,-1.7320508075688772,0A1.7320508075688772,1.7320508075688772,0,1,1,1.7320508075688772,0" stroke="#f58518" stroke-width="2" opacity="1"/><path transform="translate(373,579)" d="M1.7320508075688772,0A1.7320508075688772,1.7320508075688772,0,1,1,-1.7320508075688772,0A1.7320508075688772,1.7320508075688772,0,1,1,1.7320508075688772,0" stroke="#f58518" stroke-width="2" opacity="1"/><path transform="translate(572,652)" d="M1.7320508075688772,0A1.7320508075688772,1.7320508075688772,0,1,1,-1.7320508075688772,0A1.7320508075688772,1.7320508075688772,0,1,1,1.7320508075688772,0" stroke="#f58518" stroke-width="2" opacity="1"/><path transform="translate(365,499)" d="M1.7320508075688772,0A1.7320508075688772,1.7320508075688772,0,1,1,-1.7320508075688772,0A1.7320508075688772,1.7320508075688772,0,1,1,1.7320508075688772,0" stroke="#f58518" stroke-width="2" opacity="1"/><path transform="translate(318,457)" d="M1.7320508075688772,0A1.7320508075688772,1.7320508075688772,0,1,1,-1.7320508075688772,0A1.7320508075688772,1.7320508075688772,0,1,1,1.7320508075688772,0" stroke="#f58518" stroke-width="2" opacity="1"/><path transform="translate(111,204)" d="M1.7320508075688772,0A1.7320508075688772,1.7320508075688772,0,1,1,-1.7320508075688772,0A1.7320508075688772,1.7320508075688772,0,1,1,1.7320508075688772,0" stroke="#f58518" stroke-width="2" opacity="1"/><path transform="translate(230,327)" d="M1.7320508075688772,0A1.7320508075688772,1.7320508075688772,0,1,1,-1.7320508075688772,0A1.7320508075688772,1.7320508075688772,0,1,1,1.7320508075688772,0" stroke="#f58518" stroke-width="2" opacity="1"/><path transform="translate(484,638)" d="M1.7320508075688772,0A1.7320508075688772,1.7320508075688772,0,1,1,-1.7320508075688772,0A1.7320508075688772,1.7320508075688772,0,1,1,1.7320508075688772,0" stroke="#f58518" stroke-width="2" opacity="1"/><path transform="translate(71,194)" d="M1.7320508075688772,0A1.7320508075688772,1.7320508075688772,0,1,1,-1.7320508075688772,0A1.7320508075688772,1.7320508075688772,0,1,1,1.7320508075688772,0" stroke="#f58518" stroke-width="2" opacity="1"/><path transform="translate(349,484)" d="M1.7320508075688772,0A1.7320508075688772,1.7320508075688772,0,1,1,-1.7320508075688772,0A1.7320508075688772,1.7320508075688772,0,1,1,1.7320508075688772,0" stroke="#f58518" stroke-width="2" opacity="1"/><path transform="translate(32,102)" d="M1.7320508075688772,0A1.7320508075688772,1.7320508075688772,0,1,1,-1.7320508075688772,0A1.7320508075688772,1.7320508075688772,0,1,1,1.7320508075688772,0" stroke="#f58518" stroke-width="2" opacity="1"/><path transform="translate(198,312)" d="M1.7320508075688772,0A1.7320508075688772,1.7320508075688772,0,1,1,-1.7320508075688772,0A1.7320508075688772,1.7320508075688772,0,1,1,1.7320508075688772,0" stroke="#f58518" stroke-width="2" opacity="1"/><path transform="translate(87,199)" d="M1.7320508075688772,0A1.7320508075688772,1.7320508075688772,0,1,1,-1.7320508075688772,0A1.7320508075688772,1.7320508075688772,0,1,1,1.7320508075688772,0" stroke="#f58518" stroke-width="2" opacity="1"/><path transform="translate(452,641)" d="M1.7320508075688772,0A1.7320508075688772,1.7320508075688772,0,1,1,-1.7320508075688772,0A1.7320508075688772,1.7320508075688772,0,1,1,1.7320508075688772,0" stroke="#f58518" stroke-width="2" opacity="1"/><path transform="translate(95,167)" d="M1.7320508075688772,0A1.7320508075688772,1.7320508075688772,0,1,1,-1.7320508075688772,0A1.7320508075688772,1.7320508075688772,0,1,1,1.7320508075688772,0" stroke="#f58518" stroke-width="2" opacity="1"/><path transform="translate(167,255)" d="M1.7320508075688772,0A1.7320508075688772,1.7320508075688772,0,1,1,-1.7320508075688772,0A1.7320508075688772,1.7320508075688772,0,1,1,1.7320508075688772,0" stroke="#f58518" stroke-width="2" opacity="1"/><path transform="translate(421,609)" d="M1.7320508075688772,0A1.7320508075688772,1.7320508075688772,0,1,1,-1.7320508075688772,0A1.7320508075688772,1.7320508075688772,0,1,1,1.7320508075688772,0" stroke="#f58518" stroke-width="2" opacity="1"/><path transform="translate(286,364)" d="M1.7320508075688772,0A1.7320508075688772,1.7320508075688772,0,1,1,-1.7320508075688772,0A1.7320508075688772,1.7320508075688772,0,1,1,1.7320508075688772,0" stroke="#f58518" stroke-width="2" opacity="1"/><path transform="translate(8,26)" d="M1.7320508075688772,0A1.7320508075688772,1.7320508075688772,0,1,1,-1.7320508075688772,0A1.7320508075688772,1.7320508075688772,0,1,1,1.7320508075688772,0" stroke="#f58518" stroke-width="2" opacity="1"/><path transform="translate(540,665)" d="M1.7320508075688772,0A1.7320508075688772,1.7320508075688772,0,1,1,-1.7320508075688772,0A1.7320508075688772,1.7320508075688772,0,1,1,1.7320508075688772,0" stroke="#f58518" stroke-width="2" opacity="1"/><path transform="translate(397,576)" d="M1.7320508075688772,0A1.7320508075688772,1.7320508075688772,0,1,1,-1.7320508075688772,0A1.7320508075688772,1.7320508075688772,0,1,1,1.7320508075688772,0" stroke="#f58518" stroke-width="2" opacity="1"/><path transform="translate(143,214)" d="M1.7320508075688772,0A1.7320508075688772,1.7320508075688772,0,1,1,-1.7320508075688772,0A1.7320508075688772,1.7320508075688772,0,1,1,1.7320508075688772,0" stroke="#f58518" stroke-width="2" opacity="1"/><path transform="translate(262,291)" d="M1.7320508075688772,0A1.7320508075688772,1.7320508075688772,0,1,1,-1.7320508075688772,0A1.7320508075688772,1.7320508075688772,0,1,1,1.7320508075688772,0" stroke="#f58518" stroke-width="2" opacity="1"/><path transform="translate(516,658)" d="M1.7320508075688772,0A1.7320508075688772,1.7320508075688772,0,1,1,-1.7320508075688772,0A1.7320508075688772,1.7320508075688772,0,1,1,1.7320508075688772,0" stroke="#f58518" stroke-width="2" opacity="1"/><path transform="translate(222,323)" d="M1.7320508075688772,0A1.7320508075688772,1.7320508075688772,0,1,1,-1.7320508075688772,0A1.7320508075688772,1.7320508075688772,0,1,1,1.7320508075688772,0" stroke="#f58518" stroke-width="2" opacity="1"/><path transform="translate(79,165)" d="M1.7320508075688772,0A1.7320508075688772,1.7320508075688772,0,1,1,-1.7320508075688772,0A1.7320508075688772,1.7320508075688772,0,1,1,1.7320508075688772,0" stroke="#f58518" stroke-width="2" opacity="1"/><path transform="translate(460,652)" d="M1.7320508075688772,0A1.7320508075688772,1.7320508075688772,0,1,1,-1.7320508075688772,0A1.7320508075688772,1.7320508075688772,0,1,1,1.7320508075688772,0" stroke="#f58518" stroke-width="2" opacity="1"/><path transform="translate(325,457)" d="M1.7320508075688772,0A1.7320508075688772,1.7320508075688772,0,1,1,-1.7320508075688772,0A1.7320508075688772,1.7320508075688772,0,1,1,1.7320508075688772,0" stroke="#f58518" stroke-width="2" opacity="1"/><path transform="translate(0,25)" d="M1.7320508075688772,0A1.7320508075688772,1.7320508075688772,0,1,1,-1.7320508075688772,0A1.7320508075688772,1.7320508075688772,0,1,1,1.7320508075688772,0" stroke="#f58518" stroke-width="2" opacity="1"/><path transform="translate(206,242)" d="M1.7320508075688772,0A1.7320508075688772,1.7320508075688772,0,1,1,-1.7320508075688772,0A1.7320508075688772,1.7320508075688772,0,1,1,1.7320508075688772,0" stroke="#f58518" stroke-width="2" opacity="1"/><path transform="translate(341,508)" d="M1.7320508075688772,0A1.7320508075688772,1.7320508075688772,0,1,1,-1.7320508075688772,0A1.7320508075688772,1.7320508075688772,0,1,1,1.7320508075688772,0" stroke="#f58518" stroke-width="2" opacity="1"/><path transform="translate(476,657)" d="M1.7320508075688772,0A1.7320508075688772,1.7320508075688772,0,1,1,-1.7320508075688772,0A1.7320508075688772,1.7320508075688772,0,1,1,1.7320508075688772,0" stroke="#f58518" stroke-width="2" opacity="1"/><path transform="translate(214,290)" d="M1.7320508075688772,0A1.7320508075688772,1.7320508075688772,0,1,1,-1.7320508075688772,0A1.7320508075688772,1.7320508075688772,0,1,1,1.7320508075688772,0" stroke="#f58518" stroke-width="2" opacity="1"/><path transform="translate(429,621)" d="M1.7320508075688772,0A1.7320508075688772,1.7320508075688772,0,1,1,-1.7320508075688772,0A1.7320508075688772,1.7320508075688772,0,1,1,1.7320508075688772,0" stroke="#f58518" stroke-width="2" opacity="1"/><path transform="translate(254,295)" d="M1.7320508075688772,0A1.7320508075688772,1.7320508075688772,0,1,1,-1.7320508075688772,0A1.7320508075688772,1.7320508075688772,0,1,1,1.7320508075688772,0" stroke="#f58518" stroke-width="2" opacity="1"/><path transform="translate(508,663)" d="M1.7320508075688772,0A1.7320508075688772,1.7320508075688772,0,1,1,-1.7320508075688772,0A1.7320508075688772,1.7320508075688772,0,1,1,1.7320508075688772,0" stroke="#f58518" stroke-width="2" opacity="1"/><path transform="translate(175,296)" d="M1.7320508075688772,0A1.7320508075688772,1.7320508075688772,0,1,1,-1.7320508075688772,0A1.7320508075688772,1.7320508075688772,0,1,1,1.7320508075688772,0" stroke="#f58518" stroke-width="2" opacity="1"/><path transform="translate(294,385)" d="M1.7320508075688772,0A1.7320508075688772,1.7320508075688772,0,1,1,-1.7320508075688772,0A1.7320508075688772,1.7320508075688772,0,1,1,1.7320508075688772,0" stroke="#f58518" stroke-width="2" opacity="1"/><path transform="translate(389,574)" d="M1.7320508075688772,0A1.7320508075688772,1.7320508075688772,0,1,1,-1.7320508075688772,0A1.7320508075688772,1.7320508075688772,0,1,1,1.7320508075688772,0" stroke="#f58518" stroke-width="2" opacity="1"/><path transform="translate(135,226)" d="M1.7320508075688772,0A1.7320508075688772,1.7320508075688772,0,1,1,-1.7320508075688772,0A1.7320508075688772,1.7320508075688772,0,1,1,1.7320508075688772,0" stroke="#f58518" stroke-width="2" opacity="1"/><path transform="translate(48,260)" d="M1.7320508075688772,0A1.7320508075688772,1.7320508075688772,0,1,1,-1.7320508075688772,0A1.7320508075688772,1.7320508075688772,0,1,1,1.7320508075688772,0" stroke="#f58518" stroke-width="2" opacity="1"/><path transform="translate(151,275)" d="M1.7320508075688772,0A1.7320508075688772,1.7320508075688772,0,1,1,-1.7320508075688772,0A1.7320508075688772,1.7320508075688772,0,1,1,1.7320508075688772,0" stroke="#f58518" stroke-width="2" opacity="1"/><path transform="translate(437,632)" d="M1.7320508075688772,0A1.7320508075688772,1.7320508075688772,0,1,1,-1.7320508075688772,0A1.7320508075688772,1.7320508075688772,0,1,1,1.7320508075688772,0" stroke="#f58518" stroke-width="2" opacity="1"/><path transform="translate(183,311)" d="M1.7320508075688772,0A1.7320508075688772,1.7320508075688772,0,1,1,-1.7320508075688772,0A1.7320508075688772,1.7320508075688772,0,1,1,1.7320508075688772,0" stroke="#f58518" stroke-width="2" opacity="1"/><path transform="translate(468,650)" d="M1.7320508075688772,0A1.7320508075688772,1.7320508075688772,0,1,1,-1.7320508075688772,0A1.7320508075688772,1.7320508075688772,0,1,1,1.7320508075688772,0" stroke="#f58518" stroke-width="2" opacity="1"/><path transform="translate(302,415)" d="M1.7320508075688772,0A1.7320508075688772,1.7320508075688772,0,1,1,-1.7320508075688772,0A1.7320508075688772,1.7320508075688772,0,1,1,1.7320508075688772,0" stroke="#f58518" stroke-width="2" opacity="1"/><path transform="translate(381,569)" d="M1.7320508075688772,0A1.7320508075688772,1.7320508075688772,0,1,1,-1.7320508075688772,0A1.7320508075688772,1.7320508075688772,0,1,1,1.7320508075688772,0" stroke="#f58518" stroke-width="2" opacity="1"/><path transform="translate(405,622)" d="M1.7320508075688772,0A1.7320508075688772,1.7320508075688772,0,1,1,-1.7320508075688772,0A1.7320508075688772,1.7320508075688772,0,1,1,1.7320508075688772,0" stroke="#f58518" stroke-width="2" opacity="1"/><path transform="translate(246,309)" d="M1.7320508075688772,0A1.7320508075688772,1.7320508075688772,0,1,1,-1.7320508075688772,0A1.7320508075688772,1.7320508075688772,0,1,1,1.7320508075688772,0" stroke="#f58518" stroke-width="2" opacity="1"/><path transform="translate(191,267)" d="M1.7320508075688772,0A1.7320508075688772,1.7320508075688772,0,1,1,-1.7320508075688772,0A1.7320508075688772,1.7320508075688772,0,1,1,1.7320508075688772,0" stroke="#f58518" stroke-width="2" opacity="1"/><path transform="translate(357,520)" d="M1.7320508075688772,0A1.7320508075688772,1.7320508075688772,0,1,1,-1.7320508075688772,0A1.7320508075688772,1.7320508075688772,0,1,1,1.7320508075688772,0" stroke="#f58518" stroke-width="2" opacity="1"/><path transform="translate(238,339)" d="M1.7320508075688772,0A1.7320508075688772,1.7320508075688772,0,1,1,-1.7320508075688772,0A1.7320508075688772,1.7320508075688772,0,1,1,1.7320508075688772,0" stroke="#f58518" stroke-width="2" opacity="1"/><path transform="translate(64,161)" d="M1.7320508075688772,0A1.7320508075688772,1.7320508075688772,0,1,1,-1.7320508075688772,0A1.7320508075688772,1.7320508075688772,0,1,1,1.7320508075688772,0" stroke="#f58518" stroke-width="2" opacity="1"/><path transform="translate(445,608)" d="M1.7320508075688772,0A1.7320508075688772,1.7320508075688772,0,1,1,-1.7320508075688772,0A1.7320508075688772,1.7320508075688772,0,1,1,1.7320508075688772,0" stroke="#f58518" stroke-width="2" opacity="1"/><path transform="translate(310,457)" d="M1.7320508075688772,0A1.7320508075688772,1.7320508075688772,0,1,1,-1.7320508075688772,0A1.7320508075688772,1.7320508075688772,0,1,1,1.7320508075688772,0" stroke="#f58518" stroke-width="2" opacity="1"/><path transform="translate(24,105)" d="M1.7320508075688772,0A1.7320508075688772,1.7320508075688772,0,1,1,-1.7320508075688772,0A1.7320508075688772,1.7320508075688772,0,1,1,1.7320508075688772,0" stroke="#f58518" stroke-width="2" opacity="1"/><path transform="translate(159,212)" d="M1.7320508075688772,0A1.7320508075688772,1.7320508075688772,0,1,1,-1.7320508075688772,0A1.7320508075688772,1.7320508075688772,0,1,1,1.7320508075688772,0" stroke="#f58518" stroke-width="2" opacity="1"/><path transform="translate(103,193)" d="M1.7320508075688772,0A1.7320508075688772,1.7320508075688772,0,1,1,-1.7320508075688772,0A1.7320508075688772,1.7320508075688772,0,1,1,1.7320508075688772,0" stroke="#f58518" stroke-width="2" opacity="1"/><path transform="translate(119,265)" d="M1.7320508075688772,0A1.7320508075688772,1.7320508075688772,0,1,1,-1.7320508075688772,0A1.7320508075688772,1.7320508075688772,0,1,1,1.7320508075688772,0" stroke="#f58518" stroke-width="2" opacity="1"/><path transform="translate(270,311)" d="M1.7320508075688772,0A1.7320508075688772,1.7320508075688772,0,1,1,-1.7320508075688772,0A1.7320508075688772,1.7320508075688772,0,1,1,1.7320508075688772,0" stroke="#f58518" stroke-width="2" opacity="1"/><path transform="translate(413,601)" d="M1.7320508075688772,0A1.7320508075688772,1.7320508075688772,0,1,1,-1.7320508075688772,0A1.7320508075688772,1.7320508075688772,0,1,1,1.7320508075688772,0" stroke="#f58518" stroke-width="2" opacity="1"/><path transform="translate(278,371)" d="M1.7320508075688772,0A1.7320508075688772,1.7320508075688772,0,1,1,-1.7320508075688772,0A1.7320508075688772,1.7320508075688772,0,1,1,1.7320508075688772,0" stroke="#f58518" stroke-width="2" opacity="1"/><path transform="translate(56,218)" d="M1.7320508075688772,0A1.7320508075688772,1.7320508075688772,0,1,1,-1.7320508075688772,0A1.7320508075688772,1.7320508075688772,0,1,1,1.7320508075688772,0" stroke="#f58518" stroke-width="2" opacity="1"/><path transform="translate(16,220)" d="M1.7320508075688772,0A1.7320508075688772,1.7320508075688772,0,1,1,-1.7320508075688772,0A1.7320508075688772,1.7320508075688772,0,1,1,1.7320508075688772,0" stroke="#f58518" stroke-width="2" opacity="1"/></g><g class="mark-group role-legend" role="graphics-symbol" aria-roledescription="legend" aria-label="Symbol legend titled 'Legend' for stroke color with 2 values: Blanche-F-MS, Minnie-F-MS"><g transform="translate(653,0)"><path class="background" aria-hidden="true" d="M0,0h86v49h-86Z" pointer-events="none"/><g><g class="mark-group role-legend-entry"><g transform="translate(4,20)"><path class="background" aria-hidden="true" d="M0,0h0v0h0Z" pointer-events="none"/><g><g class="mark-group role-scope" role="graphics-object" aria-roledescription="group mark container"><g transform="translate(0,0)"><path class="background" aria-hidden="true" d="M0,0h77.90625v10.535533905932738h-77.90625Z" pointer-events="none" opacity="1"/><g><g class="mark-symbol role-legend-symbol" pointer-events="none"><path transform="translate(5,5)" d="M3.5355339059327378,0A3.5355339059327378,3.5355339059327378,0,1,1,-3.5355339059327378,0A3.5355339059327378,3.5355339059327378,0,1,1,3.5355339059327378,0" stroke="#4c78a8" stroke-width="2" opacity="1"/></g><g class="mark-text role-legend-label" pointer-events="none"><text text-anchor="start" transform="translate(14,8)" font-family="sans-serif" font-size="10px" fill="#000" opacity="1">Blanche-F-MS</text></g></g><path class="foreground" aria-hidden="true" d="" pointer-events="none" display="none"/></g><g transform="translate(0,14)"><path class="background" aria-hidden="true" d="M0,0h77.90625v10.535533905932738h-77.90625Z" pointer-events="none" opacity="1"/><g><g class="mark-symbol role-legend-symbol" pointer-events="none"><path transform="translate(5,5)" d="M3.5355339059327378,0A3.5355339059327378,3.5355339059327378,0,1,1,-3.5355339059327378,0A3.5355339059327378,3.5355339059327378,0,1,1,3.5355339059327378,0" stroke="#f58518" stroke-width="2" opacity="1"/></g><g class="mark-text role-legend-label" pointer-events="none"><text text-anchor="start" transform="translate(14,8)" font-family="sans-serif" font-size="10px" fill="#000" opacity="1">Minnie-F-MS</text></g></g><path class="foreground" aria-hidden="true" d="" pointer-events="none" display="none"/></g></g></g><path class="foreground" aria-hidden="true" d="" pointer-events="none" display="none"/></g></g><g class="mark-text role-legend-title" pointer-events="none"><text text-anchor="start" transform="translate(4,13)" font-family="sans-serif" font-size="11px" font-weight="bold" fill="#000" opacity="1">Legend</text></g></g><path class="foreground" aria-hidden="true" d="" pointer-events="none" display="none"/></g></g><g class="mark-group role-title"><g transform="translate(351.04931640625,-22)"><path class="background" aria-hidden="true" d="M0,0h0v0h0Z" pointer-events="none"/><g><g class="mark-text role-title-text" role="graphics-symbol" aria-roledescription="title" aria-label="Title text 'Baby Names'" pointer-events="none"><text text-anchor="middle" transform="translate(0,10)" font-family="sans-serif" font-size="13px" font-weight="bold" fill="#000" opacity="1">Baby Names</text></g></g><path class="foreground" aria-hidden="true" d="" pointer-events="none" display="none"/></g></g></g><path class="foreground" aria-hidden="true" d="" display="none"/></g></g></g></svg>